<svg width="810" height="812" viewBox="0 0 810 812" fill="none" xmlns="http://www.w3.org/2000/svg">
<rect width="810" height="812" rx="100" fill="url(#paint0_linear_741_34)"/>
<path fill-rule="evenodd" clip-rule="evenodd" d="M494.471 119.309L488.201 128.049C488.246 128.055 488.29 128.06 488.335 128.065L261.69 451.522H378.461L304.388 679.636C159.838 656.168 124 566.836 124 405.3C124 274.444 136.52 110.874 407.087 124.794C408.091 124.77 409.091 124.748 410.088 124.728L530.168 68.3643L494.471 119.309ZM332.724 683.261L548.31 358.556H447.462L519.43 132.992C673.035 164.108 686 277.537 686 405.3C686 580.472 670.295 688.678 415.617 685.911L292.638 743.635L316.108 708.287L333.976 683.38C333.558 683.341 333.141 683.301 332.724 683.261Z" fill="white"/>
<defs>
<linearGradient id="paint0_linear_741_34" x1="292.587" y1="223.701" x2="934.834" y2="1000.73" gradientUnits="userSpaceOnUse">
<stop stop-color="#39C5E4"/>
<stop offset="1" stop-color="#2D61EF"/>
</linearGradient>
</defs>
</svg>
