<svg width="815" height="241" viewBox="0 0 815 241" fill="none" xmlns="http://www.w3.org/2000/svg">
<path fill-rule="evenodd" clip-rule="evenodd" d="M131.839 18.1317L129.609 21.2402C129.625 21.2421 129.641 21.244 129.657 21.2459L49 136.355H90.5556L64.1949 217.534C12.7537 209.183 -6.26103e-06 177.392 0 119.906C5.07188e-06 73.3378 4.45547 15.1278 100.743 20.0819C101.1 20.0732 101.456 20.0654 101.811 20.0583L144.544 -1.70631e-05L131.839 18.1317ZM74.279 218.824L151 103.271H115.111L140.722 22.999C195.386 34.0725 200 74.4388 200 119.906C200 182.245 194.411 220.752 103.778 219.767L60.0136 240.31L68.3656 227.731L74.7246 218.867C74.5758 218.853 74.4272 218.839 74.279 218.824Z" fill="url(#paint0_linear_738_18)"/>
<path d="M258.855 97V63.4H273.351C277.095 63.4 279.991 64.152 282.039 65.656C284.119 67.16 285.159 69.288 285.159 72.04C285.159 73.864 284.727 75.4 283.863 76.648C283.031 77.896 281.879 78.84 280.407 79.48C278.967 80.12 277.383 80.44 275.655 80.44L276.471 79.288C278.615 79.288 280.455 79.624 281.991 80.296C283.559 80.936 284.775 81.912 285.639 83.224C286.503 84.504 286.935 86.104 286.935 88.024C286.935 90.872 285.879 93.08 283.767 94.648C281.687 96.216 278.535 97 274.311 97H258.855ZM262.407 94.072H274.263C277.207 94.072 279.463 93.576 281.031 92.584C282.599 91.56 283.383 89.944 283.383 87.736C283.383 85.56 282.599 83.976 281.031 82.984C279.463 81.96 277.207 81.448 274.263 81.448H262.023V78.52H273.111C275.799 78.52 277.879 78.008 279.351 76.984C280.855 75.96 281.607 74.44 281.607 72.424C281.607 70.376 280.855 68.856 279.351 67.864C277.879 66.84 275.799 66.328 273.111 66.328H262.407V94.072ZM304.594 97.24C302.162 97.24 299.97 96.696 298.018 95.608C296.098 94.488 294.578 92.968 293.458 91.048C292.338 89.096 291.778 86.872 291.778 84.376C291.778 81.848 292.338 79.624 293.458 77.704C294.578 75.784 296.098 74.28 298.018 73.192C299.938 72.104 302.13 71.56 304.594 71.56C307.09 71.56 309.298 72.104 311.218 73.192C313.17 74.28 314.69 75.784 315.778 77.704C316.898 79.624 317.458 81.848 317.458 84.376C317.458 86.872 316.898 89.096 315.778 91.048C314.69 92.968 313.17 94.488 311.218 95.608C309.266 96.696 307.058 97.24 304.594 97.24ZM304.594 94.216C306.418 94.216 308.034 93.816 309.442 93.016C310.85 92.184 311.954 91.032 312.754 89.56C313.586 88.056 314.002 86.328 314.002 84.376C314.002 82.392 313.586 80.664 312.754 79.192C311.954 77.72 310.85 76.584 309.442 75.784C308.034 74.952 306.434 74.536 304.642 74.536C302.85 74.536 301.25 74.952 299.842 75.784C298.434 76.584 297.314 77.72 296.482 79.192C295.65 80.664 295.234 82.392 295.234 84.376C295.234 86.328 295.65 88.056 296.482 89.56C297.314 91.032 298.434 92.184 299.842 93.016C301.25 93.816 302.834 94.216 304.594 94.216ZM324.416 97V71.8H327.824V97H324.416ZM326.144 66.232C325.44 66.232 324.848 65.992 324.368 65.512C323.888 65.032 323.648 64.456 323.648 63.784C323.648 63.112 323.888 62.552 324.368 62.104C324.848 61.624 325.44 61.384 326.144 61.384C326.848 61.384 327.44 61.608 327.92 62.056C328.4 62.504 328.64 63.064 328.64 63.736C328.64 64.44 328.4 65.032 327.92 65.512C327.472 65.992 326.88 66.232 326.144 66.232ZM337.307 97V61.384H340.715V97H337.307ZM360.901 97.24C358.277 97.24 355.973 96.696 353.989 95.608C352.005 94.488 350.453 92.968 349.333 91.048C348.213 89.096 347.653 86.872 347.653 84.376C347.653 81.88 348.181 79.672 349.237 77.752C350.325 75.832 351.797 74.328 353.653 73.24C355.541 72.12 357.653 71.56 359.989 71.56C362.357 71.56 364.453 72.104 366.277 73.192C368.133 74.248 369.589 75.752 370.645 77.704C371.701 79.624 372.229 81.848 372.229 84.376C372.229 84.536 372.213 84.712 372.181 84.904C372.181 85.064 372.181 85.24 372.181 85.432H350.245V82.888H370.357L369.013 83.896C369.013 82.072 368.613 80.456 367.813 79.048C367.045 77.608 365.989 76.488 364.645 75.688C363.301 74.888 361.749 74.488 359.989 74.488C358.261 74.488 356.709 74.888 355.333 75.688C353.957 76.488 352.885 77.608 352.117 79.048C351.349 80.488 350.965 82.136 350.965 83.992V84.52C350.965 86.44 351.381 88.136 352.213 89.608C353.077 91.048 354.261 92.184 355.765 93.016C357.301 93.816 359.045 94.216 360.997 94.216C362.533 94.216 363.957 93.944 365.269 93.4C366.613 92.856 367.765 92.024 368.725 90.904L370.645 93.112C369.525 94.456 368.117 95.48 366.421 96.184C364.757 96.888 362.917 97.24 360.901 97.24ZM379.166 97V71.8H382.43V78.664L382.094 77.464C382.798 75.544 383.982 74.088 385.646 73.096C387.31 72.072 389.374 71.56 391.838 71.56V74.872C391.71 74.872 391.582 74.872 391.454 74.872C391.326 74.84 391.198 74.824 391.07 74.824C388.414 74.824 386.334 75.64 384.83 77.272C383.326 78.872 382.574 81.16 382.574 84.136V97H379.166ZM411.065 97.24C408.889 97.24 406.921 96.744 405.161 95.752C403.401 94.728 401.993 93.272 400.937 91.384C399.913 89.464 399.401 87.128 399.401 84.376C399.401 81.624 399.913 79.304 400.937 77.416C401.961 75.496 403.353 74.04 405.113 73.048C406.873 72.056 408.857 71.56 411.065 71.56C413.465 71.56 415.609 72.104 417.497 73.192C419.417 74.248 420.921 75.752 422.009 77.704C423.097 79.624 423.641 81.848 423.641 84.376C423.641 86.936 423.097 89.176 422.009 91.096C420.921 93.016 419.417 94.52 417.497 95.608C415.609 96.696 413.465 97.24 411.065 97.24ZM398.057 106.312V71.8H401.321V79.384L400.985 84.424L401.465 89.512V106.312H398.057ZM410.825 94.216C412.617 94.216 414.217 93.816 415.625 93.016C417.033 92.184 418.153 91.032 418.985 89.56C419.817 88.056 420.233 86.328 420.233 84.376C420.233 82.424 419.817 80.712 418.985 79.24C418.153 77.768 417.033 76.616 415.625 75.784C414.217 74.952 412.617 74.536 410.825 74.536C409.033 74.536 407.417 74.952 405.977 75.784C404.569 76.616 403.449 77.768 402.617 79.24C401.817 80.712 401.417 82.424 401.417 84.376C401.417 86.328 401.817 88.056 402.617 89.56C403.449 91.032 404.569 92.184 405.977 93.016C407.417 93.816 409.033 94.216 410.825 94.216ZM430.588 97V61.384H433.996V97H430.588ZM459.271 97V91.432L459.127 90.52V81.208C459.127 79.064 458.519 77.416 457.303 76.264C456.119 75.112 454.343 74.536 451.975 74.536C450.343 74.536 448.791 74.808 447.319 75.352C445.847 75.896 444.599 76.616 443.575 77.512L442.039 74.968C443.319 73.88 444.855 73.048 446.647 72.472C448.439 71.864 450.327 71.56 452.311 71.56C455.575 71.56 458.087 72.376 459.847 74.008C461.639 75.608 462.535 78.056 462.535 81.352V97H459.271ZM450.583 97.24C448.695 97.24 447.047 96.936 445.639 96.328C444.263 95.688 443.207 94.824 442.471 93.736C441.735 92.616 441.367 91.336 441.367 89.896C441.367 88.584 441.671 87.4 442.279 86.344C442.919 85.256 443.943 84.392 445.351 83.752C446.791 83.08 448.711 82.744 451.111 82.744H459.799V85.288H451.207C448.775 85.288 447.079 85.72 446.119 86.584C445.191 87.448 444.727 88.52 444.727 89.8C444.727 91.24 445.287 92.392 446.407 93.256C447.527 94.12 449.095 94.552 451.111 94.552C453.031 94.552 454.679 94.12 456.055 93.256C457.463 92.36 458.487 91.08 459.127 89.416L459.895 91.768C459.255 93.432 458.135 94.76 456.535 95.752C454.967 96.744 452.983 97.24 450.583 97.24ZM479.759 97.24C477.391 97.24 475.567 96.6 474.287 95.32C473.007 94.04 472.367 92.232 472.367 89.896V66.232H475.775V89.704C475.775 91.176 476.143 92.312 476.879 93.112C477.647 93.912 478.735 94.312 480.143 94.312C481.647 94.312 482.895 93.88 483.887 93.016L485.087 95.464C484.415 96.072 483.599 96.52 482.639 96.808C481.711 97.096 480.751 97.24 479.759 97.24ZM467.855 74.632V71.8H483.455V74.632H467.855ZM501.104 97.24C498.48 97.24 496.176 96.696 494.192 95.608C492.208 94.488 490.656 92.968 489.536 91.048C488.416 89.096 487.856 86.872 487.856 84.376C487.856 81.88 488.384 79.672 489.44 77.752C490.528 75.832 492 74.328 493.856 73.24C495.744 72.12 497.856 71.56 500.192 71.56C502.56 71.56 504.656 72.104 506.48 73.192C508.336 74.248 509.792 75.752 510.848 77.704C511.904 79.624 512.432 81.848 512.432 84.376C512.432 84.536 512.416 84.712 512.384 84.904C512.384 85.064 512.384 85.24 512.384 85.432H490.448V82.888H510.56L509.216 83.896C509.216 82.072 508.816 80.456 508.016 79.048C507.248 77.608 506.192 76.488 504.848 75.688C503.504 74.888 501.952 74.488 500.192 74.488C498.464 74.488 496.912 74.888 495.536 75.688C494.16 76.488 493.088 77.608 492.32 79.048C491.552 80.488 491.168 82.136 491.168 83.992V84.52C491.168 86.44 491.584 88.136 492.416 89.608C493.28 91.048 494.464 92.184 495.968 93.016C497.504 93.816 499.248 94.216 501.2 94.216C502.736 94.216 504.16 93.944 505.472 93.4C506.816 92.856 507.968 92.024 508.928 90.904L510.848 93.112C509.728 94.456 508.32 95.48 506.624 96.184C504.96 96.888 503.12 97.24 501.104 97.24Z" fill="#475569"/>
<path d="M256.697 170V114H264.697V163.04H295.017V170H256.697ZM329.397 170V161.04L328.997 159.36V144.08C328.997 140.827 328.037 138.32 326.117 136.56C324.25 134.747 321.424 133.84 317.637 133.84C315.13 133.84 312.677 134.267 310.277 135.12C307.877 135.92 305.85 137.013 304.197 138.4L300.997 132.64C303.184 130.88 305.797 129.547 308.837 128.64C311.93 127.68 315.157 127.2 318.517 127.2C324.33 127.2 328.81 128.613 331.957 131.44C335.104 134.267 336.677 138.587 336.677 144.4V170H329.397ZM315.477 170.48C312.33 170.48 309.557 169.947 307.157 168.88C304.81 167.813 302.997 166.347 301.717 164.48C300.437 162.56 299.797 160.4 299.797 158C299.797 155.707 300.33 153.627 301.397 151.76C302.517 149.893 304.304 148.4 306.757 147.28C309.264 146.16 312.624 145.6 316.837 145.6H330.277V151.12H317.157C313.317 151.12 310.73 151.76 309.397 153.04C308.064 154.32 307.397 155.867 307.397 157.68C307.397 159.76 308.224 161.44 309.877 162.72C311.53 163.947 313.824 164.56 316.757 164.56C319.637 164.56 322.144 163.92 324.277 162.64C326.464 161.36 328.037 159.493 328.997 157.04L330.517 162.32C329.504 164.827 327.717 166.827 325.157 168.32C322.597 169.76 319.37 170.48 315.477 170.48ZM373.529 127.2C376.996 127.2 380.036 127.867 382.649 129.2C385.316 130.533 387.396 132.56 388.889 135.28C390.383 138 391.129 141.44 391.129 145.6V170H383.449V146.48C383.449 142.373 382.436 139.28 380.409 137.2C378.436 135.12 375.636 134.08 372.009 134.08C369.289 134.08 366.916 134.613 364.889 135.68C362.863 136.747 361.289 138.32 360.169 140.4C359.103 142.48 358.569 145.067 358.569 148.16V170H350.889V127.6H358.249V139.04L357.049 136C358.436 133.227 360.569 131.067 363.449 129.52C366.329 127.973 369.689 127.2 373.529 127.2ZM422.863 170.48C418.756 170.48 415.076 169.573 411.823 167.76C408.623 165.947 406.089 163.413 404.223 160.16C402.356 156.907 401.423 153.12 401.423 148.8C401.423 144.48 402.356 140.72 404.223 137.52C406.089 134.267 408.623 131.733 411.823 129.92C415.076 128.107 418.756 127.2 422.863 127.2C426.436 127.2 429.663 128 432.543 129.6C435.423 131.2 437.716 133.6 439.423 136.8C441.183 140 442.063 144 442.063 148.8C442.063 153.6 441.209 157.6 439.503 160.8C437.849 164 435.583 166.427 432.703 168.08C429.823 169.68 426.543 170.48 422.863 170.48ZM423.503 163.76C426.169 163.76 428.569 163.147 430.703 161.92C432.889 160.693 434.596 158.96 435.823 156.72C437.103 154.427 437.743 151.787 437.743 148.8C437.743 145.76 437.103 143.147 435.823 140.96C434.596 138.72 432.889 136.987 430.703 135.76C428.569 134.533 426.169 133.92 423.503 133.92C420.783 133.92 418.356 134.533 416.223 135.76C414.089 136.987 412.383 138.72 411.103 140.96C409.823 143.147 409.183 145.76 409.183 148.8C409.183 151.787 409.823 154.427 411.103 156.72C412.383 158.96 414.089 160.693 416.223 161.92C418.356 163.147 420.783 163.76 423.503 163.76ZM437.983 170V158.56L438.462 148.72L437.663 138.88V110.64H445.343V170H437.983ZM459.874 170V127.6H467.554V170H459.874ZM463.714 119.44C462.22 119.44 460.967 118.96 459.954 118C458.994 117.04 458.514 115.867 458.514 114.48C458.514 113.04 458.994 111.84 459.954 110.88C460.967 109.92 462.22 109.44 463.714 109.44C465.207 109.44 466.434 109.92 467.394 110.88C468.407 111.787 468.914 112.933 468.914 114.32C468.914 115.76 468.434 116.987 467.474 118C466.514 118.96 465.26 119.44 463.714 119.44ZM504.858 127.2C508.324 127.2 511.364 127.867 513.978 129.2C516.644 130.533 518.724 132.56 520.218 135.28C521.711 138 522.458 141.44 522.458 145.6V170H514.778V146.48C514.778 142.373 513.764 139.28 511.738 137.2C509.764 135.12 506.964 134.08 503.338 134.08C500.618 134.08 498.244 134.613 496.218 135.68C494.191 136.747 492.618 138.32 491.498 140.4C490.431 142.48 489.898 145.067 489.898 148.16V170H482.218V127.6H489.578V139.04L488.378 136C489.764 133.227 491.898 131.067 494.778 129.52C497.658 127.973 501.018 127.2 504.858 127.2ZM555.231 186C551.337 186 547.551 185.44 543.871 184.32C540.244 183.253 537.284 181.707 534.991 179.68L538.671 173.76C540.644 175.467 543.071 176.8 545.951 177.76C548.831 178.773 551.844 179.28 554.991 179.28C560.004 179.28 563.684 178.107 566.031 175.76C568.377 173.413 569.551 169.84 569.551 165.04V156.08L570.351 147.68L569.951 139.2V127.6H577.231V164.24C577.231 171.707 575.364 177.2 571.631 180.72C567.897 184.24 562.431 186 555.231 186ZM554.271 168.24C550.164 168.24 546.484 167.387 543.231 165.68C540.031 163.92 537.471 161.493 535.551 158.4C533.684 155.307 532.751 151.733 532.751 147.68C532.751 143.573 533.684 140 535.551 136.96C537.471 133.867 540.031 131.467 543.231 129.76C546.484 128.053 550.164 127.2 554.271 127.2C557.897 127.2 561.204 127.947 564.191 129.44C567.177 130.88 569.551 133.12 571.311 136.16C573.124 139.2 574.031 143.04 574.031 147.68C574.031 152.267 573.124 156.08 571.311 159.12C569.551 162.16 567.177 164.453 564.191 166C561.204 167.493 557.897 168.24 554.271 168.24ZM555.151 161.52C557.977 161.52 560.484 160.933 562.671 159.76C564.857 158.587 566.564 156.96 567.791 154.88C569.071 152.8 569.711 150.4 569.711 147.68C569.711 144.96 569.071 142.56 567.791 140.48C566.564 138.4 564.857 136.8 562.671 135.68C560.484 134.507 557.977 133.92 555.151 133.92C552.324 133.92 549.791 134.507 547.551 135.68C545.364 136.8 543.631 138.4 542.351 140.48C541.124 142.56 540.511 144.96 540.511 147.68C540.511 150.4 541.124 152.8 542.351 154.88C543.631 156.96 545.364 158.587 547.551 159.76C549.791 160.933 552.324 161.52 555.151 161.52ZM614.509 170V114H636.349C641.256 114 645.443 114.773 648.909 116.32C652.376 117.867 655.043 120.107 656.909 123.04C658.776 125.973 659.709 129.467 659.709 133.52C659.709 137.573 658.776 141.067 656.909 144C655.043 146.88 652.376 149.12 648.909 150.72C645.443 152.267 641.256 153.04 636.349 153.04H618.909L622.509 149.28V170H614.509ZM622.509 150.08L618.909 146.08H636.109C641.229 146.08 645.096 144.987 647.709 142.8C650.376 140.613 651.709 137.52 651.709 133.52C651.709 129.52 650.376 126.427 647.709 124.24C645.096 122.053 641.229 120.96 636.109 120.96H618.909L622.509 116.96V150.08ZM696.272 170V161.04L695.872 159.36V144.08C695.872 140.827 694.912 138.32 692.992 136.56C691.125 134.747 688.299 133.84 684.512 133.84C682.005 133.84 679.552 134.267 677.152 135.12C674.752 135.92 672.725 137.013 671.072 138.4L667.872 132.64C670.059 130.88 672.672 129.547 675.712 128.64C678.805 127.68 682.032 127.2 685.392 127.2C691.205 127.2 695.685 128.613 698.832 131.44C701.979 134.267 703.552 138.587 703.552 144.4V170H696.272ZM682.352 170.48C679.205 170.48 676.432 169.947 674.032 168.88C671.685 167.813 669.872 166.347 668.592 164.48C667.312 162.56 666.672 160.4 666.672 158C666.672 155.707 667.205 153.627 668.272 151.76C669.392 149.893 671.179 148.4 673.632 147.28C676.139 146.16 679.499 145.6 683.712 145.6H697.152V151.12H684.032C680.192 151.12 677.605 151.76 676.272 153.04C674.939 154.32 674.272 155.867 674.272 157.68C674.272 159.76 675.099 161.44 676.752 162.72C678.405 163.947 680.699 164.56 683.632 164.56C686.512 164.56 689.019 163.92 691.152 162.64C693.339 161.36 694.912 159.493 695.872 157.04L697.392 162.32C696.379 164.827 694.592 166.827 692.032 168.32C689.472 169.76 686.245 170.48 682.352 170.48ZM736.324 186C732.431 186 728.644 185.44 724.964 184.32C721.338 183.253 718.378 181.707 716.084 179.68L719.764 173.76C721.738 175.467 724.164 176.8 727.044 177.76C729.924 178.773 732.938 179.28 736.084 179.28C741.098 179.28 744.778 178.107 747.124 175.76C749.471 173.413 750.644 169.84 750.644 165.04V156.08L751.444 147.68L751.044 139.2V127.6H758.324V164.24C758.324 171.707 756.458 177.2 752.724 180.72C748.991 184.24 743.524 186 736.324 186ZM735.364 168.24C731.258 168.24 727.578 167.387 724.324 165.68C721.124 163.92 718.564 161.493 716.644 158.4C714.778 155.307 713.844 151.733 713.844 147.68C713.844 143.573 714.778 140 716.644 136.96C718.564 133.867 721.124 131.467 724.324 129.76C727.578 128.053 731.258 127.2 735.364 127.2C738.991 127.2 742.298 127.947 745.284 129.44C748.271 130.88 750.644 133.12 752.404 136.16C754.218 139.2 755.124 143.04 755.124 147.68C755.124 152.267 754.218 156.08 752.404 159.12C750.644 162.16 748.271 164.453 745.284 166C742.298 167.493 738.991 168.24 735.364 168.24ZM736.244 161.52C739.071 161.52 741.578 160.933 743.764 159.76C745.951 158.587 747.658 156.96 748.884 154.88C750.164 152.8 750.804 150.4 750.804 147.68C750.804 144.96 750.164 142.56 748.884 140.48C747.658 138.4 745.951 136.8 743.764 135.68C741.578 134.507 739.071 133.92 736.244 133.92C733.418 133.92 730.884 134.507 728.644 135.68C726.458 136.8 724.724 138.4 723.444 140.48C722.218 142.56 721.604 144.96 721.604 147.68C721.604 150.4 722.218 152.8 723.444 154.88C724.724 156.96 726.458 158.587 728.644 159.76C730.884 160.933 733.418 161.52 736.244 161.52ZM791.879 170.48C787.345 170.48 783.345 169.547 779.879 167.68C776.465 165.813 773.799 163.253 771.879 160C770.012 156.747 769.079 153.013 769.079 148.8C769.079 144.587 769.985 140.853 771.799 137.6C773.665 134.347 776.199 131.813 779.399 130C782.652 128.133 786.305 127.2 790.359 127.2C794.465 127.2 798.092 128.107 801.239 129.92C804.385 131.733 806.839 134.293 808.599 137.6C810.412 140.853 811.319 144.667 811.319 149.04C811.319 149.36 811.292 149.733 811.239 150.16C811.239 150.587 811.212 150.987 811.159 151.36H775.079V145.84H807.159L804.039 147.76C804.092 145.04 803.532 142.613 802.359 140.48C801.185 138.347 799.559 136.693 797.479 135.52C795.452 134.293 793.079 133.68 790.359 133.68C787.692 133.68 785.319 134.293 783.239 135.52C781.159 136.693 779.532 138.373 778.359 140.56C777.185 142.693 776.599 145.147 776.599 147.92V149.2C776.599 152.027 777.239 154.56 778.519 156.8C779.852 158.987 781.692 160.693 784.039 161.92C786.385 163.147 789.079 163.76 792.119 163.76C794.625 163.76 796.892 163.333 798.919 162.48C800.999 161.627 802.812 160.347 804.359 158.64L808.599 163.6C806.679 165.84 804.279 167.547 801.399 168.72C798.572 169.893 795.399 170.48 791.879 170.48Z" fill="#020617"/>
<defs>
<linearGradient id="paint0_linear_738_18" x1="72.2437" y1="66.2038" x2="265.767" y2="261.547" gradientUnits="userSpaceOnUse">
<stop stop-color="#39C5E4"/>
<stop offset="1" stop-color="#2D61EF"/>
</linearGradient>
</defs>
</svg>
